<svg width="16" height="16" viewBox="0 0 16 16" fill="none" xmlns="http://www.w3.org/2000/svg">
<path d="M12.6667 2.66668H11.3333V2.00001C11.3333 1.8232 11.2631 1.65363 11.1381 1.52861C11.0131 1.40358 10.8435 1.33334 10.6667 1.33334C10.4899 1.33334 10.3203 1.40358 10.1953 1.52861C10.0702 1.65363 10 1.8232 10 2.00001V2.66668H6V2.00001C6 1.8232 5.92976 1.65363 5.80474 1.52861C5.67972 1.40358 5.51015 1.33334 5.33334 1.33334C5.15652 1.33334 4.98696 1.40358 4.86193 1.52861C4.73691 1.65363 4.66667 1.8232 4.66667 2.00001V2.66668H3.33334C2.8029 2.66668 2.2942 2.87739 1.91912 3.25246C1.54405 3.62754 1.33334 4.13624 1.33334 4.66668V12.6667C1.33334 13.1971 1.54405 13.7058 1.91912 14.0809C2.2942 14.456 2.8029 14.6667 3.33334 14.6667H12.6667C13.1971 14.6667 13.7058 14.456 14.0809 14.0809C14.456 13.7058 14.6667 13.1971 14.6667 12.6667V4.66668C14.6667 4.13624 14.456 3.62754 14.0809 3.25246C13.7058 2.87739 13.1971 2.66668 12.6667 2.66668ZM13.3333 12.6667C13.3333 12.8435 13.2631 13.0131 13.1381 13.1381C13.0131 13.2631 12.8435 13.3333 12.6667 13.3333H3.33334C3.15652 13.3333 2.98696 13.2631 2.86193 13.1381C2.73691 13.0131 2.66667 12.8435 2.66667 12.6667V8.00001H13.3333V12.6667ZM13.3333 6.66668H2.66667V4.66668C2.66667 4.48987 2.73691 4.3203 2.86193 4.19527C2.98696 4.07025 3.15652 4.00001 3.33334 4.00001H4.66667V4.66668C4.66667 4.84349 4.73691 5.01306 4.86193 5.13808C4.98696 5.26311 5.15652 5.33334 5.33334 5.33334C5.51015 5.33334 5.67972 5.26311 5.80474 5.13808C5.92976 5.01306 6 4.84349 6 4.66668V4.00001H10V4.66668C10 4.84349 10.0702 5.01306 10.1953 5.13808C10.3203 5.26311 10.4899 5.33334 10.6667 5.33334C10.8435 5.33334 11.0131 5.26311 11.1381 5.13808C11.2631 5.01306 11.3333 4.84349 11.3333 4.66668V4.00001H12.6667C12.8435 4.00001 13.0131 4.07025 13.1381 4.19527C13.2631 4.3203 13.3333 4.48987 13.3333 4.66668V6.66668Z" fill="black"/>
</svg>
