<svg width="7" height="12" viewBox="0 0 7 12" fill="none" xmlns="http://www.w3.org/2000/svg">
<path d="M2.79 6.00001L6.33 2.46001C6.51626 2.27265 6.6208 2.0192 6.6208 1.75501C6.6208 1.49082 6.51626 1.23737 6.33 1.05001C6.23704 0.956281 6.12644 0.881887 6.00458 0.831118C5.88272 0.780349 5.75202 0.754211 5.62 0.754211C5.48799 0.754211 5.35729 0.780349 5.23543 0.831118C5.11357 0.881887 5.00297 0.956281 4.91 1.05001L0.670005 5.29001C0.576276 5.38297 0.501882 5.49357 0.451114 5.61543C0.400345 5.73729 0.374207 5.868 0.374207 6.00001C0.374207 6.13202 0.400345 6.26273 0.451114 6.38459C0.501882 6.50645 0.576276 6.61705 0.670005 6.71001L4.91 11C5.00344 11.0927 5.11426 11.166 5.2361 11.2158C5.35794 11.2655 5.4884 11.2908 5.62 11.29C5.75161 11.2908 5.88207 11.2655 6.00391 11.2158C6.12575 11.166 6.23656 11.0927 6.33 11C6.51626 10.8126 6.6208 10.5592 6.6208 10.295C6.6208 10.0308 6.51626 9.77737 6.33 9.59001L2.79 6.00001Z" fill="black"/>
</svg>
