<svg width="24" height="24" viewBox="0 0 24 24" fill="none" xmlns="http://www.w3.org/2000/svg">
<g clip-path="url(#clip0_20_2062)">
<path fill-rule="evenodd" clip-rule="evenodd" d="M0 0H45.6004V1.84617H0V0ZM0 3.69234H45.6004V5.53852H0V3.69234ZM0 7.38469H45.6004V9.23086H0V7.38469ZM0 11.077H45.6004V12.9232H0V11.077ZM0 14.7694H45.6004V16.6155H0V14.7694ZM0 18.4617H45.6004V20.3079H0V18.4617ZM0 22.1541H45.6004V24.0002H0V22.1541Z" fill="#BD3D44"/>
<path fill-rule="evenodd" clip-rule="evenodd" d="M0 1.84617H45.6004V3.69234H0V1.84617ZM0 5.53852H45.6004V7.38469H0V5.53852ZM0 9.23086H45.6004V11.077H0V9.23086ZM0 12.9232H45.6004V14.7694H0V12.9232ZM0 16.6155H45.6004V18.4617H0V16.6155ZM0 20.3079H45.6004V22.1541H0V20.3079Z" fill="white"/>
<path fill-rule="evenodd" clip-rule="evenodd" d="M0 0H18.2402V12.9232H0V0Z" fill="#192F5D"/>
<path fill-rule="evenodd" clip-rule="evenodd" d="M1.51365 0.553851L1.69827 1.07078H2.2152L1.79058 1.38463L1.95673 1.88309L1.51365 1.56925L1.10749 1.88309L1.27365 1.38463L0.830566 1.07078H1.38442L1.51365 0.553851ZM4.55983 0.553851L4.72599 1.07078H5.26138L4.8183 1.38463L5.00292 1.88309L4.55983 1.56925L4.11675 1.88309L4.30137 1.38463L3.85829 1.07078H4.39368L4.55983 0.553851ZM7.60602 0.553851L7.77217 1.07078H8.30756L7.86448 1.38463L8.0491 1.88309L7.60602 1.56925L7.16294 1.88309L7.34755 1.38463L6.90447 1.07078H7.43986L7.60602 0.553851ZM10.6337 0.553851L10.8184 1.07078H11.3353L10.9107 1.38463L11.0768 1.88309L10.6337 1.56925L10.2091 1.88309L10.3753 1.38463L9.93219 1.07078H10.486L10.6337 0.553851ZM13.6799 0.553851L13.8461 1.07078H14.3815L13.9384 1.38463L14.123 1.88309L13.6615 1.56925L13.2368 1.88309L13.403 1.38463L12.9599 1.07078H13.4953L13.6799 0.553851ZM16.7261 0.553851L16.8923 1.07078H17.4277L16.9846 1.38463L17.1692 1.88309L16.7261 1.56925L16.283 1.88309L16.4676 1.38463L16.0246 1.07078H16.56L16.7261 0.553851ZM3.04597 1.84617L3.21213 2.3631H3.74752L3.30444 2.67695L3.48905 3.17541L3.04597 2.86157L2.60289 3.17541L2.78751 2.67695L2.34443 2.3631H2.87982L3.04597 1.84617ZM6.07369 1.84617L6.25831 2.3631H6.77524L6.35062 2.67695L6.51678 3.17541L6.07369 2.86157L5.64908 3.17541L5.81523 2.67695L5.37215 2.3631H5.926L6.07369 1.84617ZM9.11988 1.84617L9.28603 2.3631H9.82142L9.37834 2.67695L9.56296 3.17541L9.11988 2.86157L8.6768 3.17541L8.86141 2.67695L8.41833 2.3631H8.95372L9.11988 1.84617ZM12.1661 1.84617L12.3322 2.3631H12.8676L12.4245 2.67695L12.6091 3.17541L12.1661 2.86157L11.723 3.17541L11.9076 2.67695L11.4645 2.3631H11.9999L12.1661 1.84617ZM15.1938 1.84617L15.3784 2.3631H15.8769L15.4522 2.67695L15.6184 3.17541L15.1753 2.86157L14.7507 3.17541L14.9169 2.67695L14.4738 2.3631H15.0276L15.1938 1.84617ZM1.53211 3.13849L1.67981 3.65542H2.23366L1.79058 3.96927L1.95673 4.46773L1.51365 4.15389L1.10749 4.46773L1.27365 3.96927L0.830566 3.65542H1.38442L1.53211 3.13849ZM4.55983 3.13849L4.72599 3.65542H5.26138L4.83676 3.96927L5.00292 4.46773L4.55983 4.15389L4.13521 4.46773L4.30137 3.96927L3.85829 3.65542H4.39368L4.55983 3.13849ZM7.60602 3.13849L7.77217 3.65542H8.30756L7.86448 3.96927L8.0491 4.46773L7.60602 4.15389L7.16294 4.46773L7.34755 3.96927L6.90447 3.65542H7.43986L7.60602 3.13849ZM10.6337 3.13849L10.8184 3.65542H11.3353L10.9107 3.96927L11.0768 4.46773L10.6337 4.15389L10.2091 4.46773L10.3753 3.96927L9.93219 3.65542H10.486L10.6337 3.13849ZM13.6799 3.13849L13.8461 3.65542H14.3815L13.9568 3.96927L14.123 4.46773L13.6799 4.15389L13.2553 4.46773L13.4215 3.96927L12.9784 3.65542H13.5138L13.6799 3.13849ZM16.7261 3.13849L16.8923 3.65542H17.4277L16.9846 3.96927L17.1692 4.46773L16.7261 4.15389L16.283 4.46773L16.4676 3.96927L16.0246 3.65542H16.56L16.7261 3.13849ZM3.04597 4.43081L3.21213 4.94774H3.74752L3.30444 5.26159L3.48905 5.76005L3.04597 5.44621L2.60289 5.76005L2.78751 5.26159L2.34443 4.94774H2.87982L3.04597 4.43081ZM6.07369 4.43081L6.25831 4.94774H6.77524L6.35062 5.26159L6.51678 5.76005L6.07369 5.44621L5.64908 5.76005L5.81523 5.26159L5.37215 4.94774H5.926L6.07369 4.43081ZM9.11988 4.43081L9.28603 4.94774H9.82142L9.3968 5.26159L9.56296 5.76005L9.11988 5.44621L8.69526 5.76005L8.86141 5.26159L8.41833 4.94774H8.95372L9.11988 4.43081ZM12.1661 4.43081L12.3322 4.94774H12.8676L12.4245 5.26159L12.6091 5.76005L12.1661 5.44621L11.723 5.76005L11.9076 5.26159L11.4645 4.94774H11.9999L12.1661 4.43081ZM15.1938 4.43081L15.3784 4.94774H15.8769L15.4522 5.26159L15.6184 5.76005L15.1753 5.44621L14.7507 5.76005L14.9169 5.26159L14.4738 4.94774H15.0276L15.1938 4.43081ZM1.53211 5.72313L1.67981 6.24006H2.23366L1.79058 6.55391L1.95673 7.05237L1.51365 6.73853L1.10749 7.05237L1.27365 6.55391L0.830566 6.24006H1.38442L1.53211 5.72313ZM4.55983 5.72313L4.72599 6.24006H5.26138L4.83676 6.55391L5.00292 7.05237L4.55983 6.73853L4.13521 7.05237L4.30137 6.55391L3.85829 6.24006H4.39368L4.55983 5.72313ZM7.60602 5.72313L7.77217 6.24006H8.30756L7.86448 6.55391L8.0491 7.05237L7.60602 6.73853L7.16294 7.05237L7.34755 6.55391L6.90447 6.24006H7.43986L7.60602 5.72313ZM10.6337 5.72313L10.8184 6.24006H11.3353L10.9107 6.55391L11.0768 7.05237L10.6337 6.73853L10.2091 7.05237L10.3753 6.55391L9.93219 6.24006H10.486L10.6337 5.72313ZM13.6799 5.72313L13.8461 6.24006H14.3815L13.9568 6.55391L14.123 7.05237L13.6799 6.73853L13.2553 7.05237L13.4215 6.55391L12.9784 6.24006H13.5138L13.6799 5.72313ZM16.7261 5.72313L16.8923 6.24006H17.4277L16.9846 6.55391L17.1692 7.05237L16.7261 6.73853L16.283 7.05237L16.4676 6.55391L16.0246 6.24006H16.56L16.7261 5.72313ZM3.04597 7.01545L3.21213 7.53238H3.74752L3.30444 7.84623L3.48905 8.34469L3.04597 8.03085L2.60289 8.34469L2.78751 7.84623L2.34443 7.53238H2.87982L3.04597 7.01545ZM6.07369 7.01545L6.25831 7.53238H6.77524L6.35062 7.84623L6.51678 8.34469L6.07369 8.03085L5.64908 8.34469L5.81523 7.84623L5.37215 7.53238H5.926L6.07369 7.01545ZM9.11988 7.01545L9.28603 7.53238H9.82142L9.3968 7.84623L9.56296 8.34469L9.11988 8.03085L8.69526 8.34469L8.86141 7.84623L8.41833 7.53238H8.95372L9.11988 7.01545ZM12.1661 7.01545L12.3322 7.53238H12.8676L12.4245 7.84623L12.6091 8.34469L12.1661 8.03085L11.723 8.34469L11.9076 7.84623L11.4645 7.53238H11.9999L12.1661 7.01545ZM15.1938 7.01545L15.3784 7.53238H15.8769L15.4522 7.84623L15.6184 8.34469L15.1753 8.03085L14.7507 8.34469L14.9169 7.84623L14.4738 7.53238H15.0276L15.1938 7.01545ZM1.53211 8.30777L1.67981 8.8247H2.23366L1.79058 9.13855L1.95673 9.63701L1.51365 9.32317L1.10749 9.63701L1.27365 9.13855L0.830566 8.8247H1.38442L1.53211 8.30777ZM4.55983 8.30777L4.72599 8.8247H5.26138L4.83676 9.13855L5.00292 9.63701L4.55983 9.32317L4.13521 9.63701L4.30137 9.13855L3.85829 8.8247H4.39368L4.55983 8.30777ZM7.60602 8.30777L7.77217 8.8247H8.30756L7.86448 9.13855L8.0491 9.63701L7.60602 9.32317L7.16294 9.63701L7.34755 9.13855L6.90447 8.8247H7.43986L7.60602 8.30777ZM10.6337 8.30777L10.8184 8.8247H11.3353L10.9107 9.13855L11.0768 9.63701L10.6337 9.32317L10.2091 9.63701L10.3753 9.13855L9.93219 8.8247H10.486L10.6337 8.30777ZM13.6799 8.30777L13.8461 8.8247H14.3815L13.9568 9.13855L14.123 9.63701L13.6799 9.32317L13.2553 9.63701L13.4215 9.13855L12.9784 8.8247H13.5138L13.6799 8.30777ZM16.7261 8.30777L16.8923 8.8247H17.4277L16.9846 9.13855L17.1692 9.63701L16.7261 9.32317L16.283 9.63701L16.4676 9.13855L16.0246 8.8247H16.56L16.7261 8.30777ZM3.04597 9.60009L3.21213 10.117H3.74752L3.30444 10.4309L3.48905 10.9293L3.04597 10.6155L2.60289 10.9293L2.78751 10.4309L2.34443 10.117H2.87982L3.04597 9.60009ZM6.07369 9.60009L6.25831 10.117H6.77524L6.35062 10.4309L6.51678 10.9293L6.07369 10.6155L5.64908 10.9293L5.81523 10.4309L5.37215 10.117H5.926L6.07369 9.60009ZM9.11988 9.60009L9.28603 10.117H9.82142L9.3968 10.4309L9.56296 10.9293L9.11988 10.6155L8.69526 10.9293L8.86141 10.4309L8.41833 10.117H8.95372L9.11988 9.60009ZM12.1661 9.60009L12.3322 10.117H12.8676L12.4245 10.4309L12.6091 10.9293L12.1661 10.6155L11.723 10.9293L11.9076 10.4309L11.4645 10.117H11.9999L12.1661 9.60009ZM15.1938 9.60009L15.3784 10.117H15.8769L15.4522 10.4309L15.6184 10.9293L15.1753 10.6155L14.7507 10.9293L14.9169 10.4309L14.4738 10.117H15.0276L15.1938 9.60009ZM1.53211 10.8924L1.67981 11.4093H2.23366L1.79058 11.7232L1.95673 12.2217L1.51365 11.9078L1.10749 12.2217L1.27365 11.7232L0.830566 11.4093H1.38442L1.53211 10.8924ZM4.55983 10.8924L4.72599 11.4093H5.26138L4.83676 11.7232L5.00292 12.2217L4.55983 11.9078L4.13521 12.2217L4.30137 11.7232L3.85829 11.4093H4.39368L4.55983 10.8924ZM7.60602 10.8924L7.77217 11.4093H8.30756L7.86448 11.7232L8.0491 12.2217L7.60602 11.9078L7.16294 12.2217L7.34755 11.7232L6.90447 11.4093H7.43986L7.60602 10.8924ZM10.6337 10.8924L10.8184 11.4093H11.3353L10.9107 11.7232L11.0768 12.2217L10.6337 11.9078L10.2091 12.2217L10.3753 11.7232L9.93219 11.4093H10.486L10.6337 10.8924ZM13.6799 10.8924L13.8461 11.4093H14.3815L13.9568 11.7232L14.123 12.2217L13.6799 11.9078L13.2553 12.2217L13.4215 11.7232L12.9784 11.4093H13.5138L13.6799 10.8924ZM16.7261 10.8924L16.8923 11.4093H17.4277L16.9846 11.7232L17.1692 12.2217L16.7261 11.9078L16.283 12.2217L16.4676 11.7232L16.0246 11.4093H16.56L16.7261 10.8924Z" fill="white"/>
</g>
<defs>
<clipPath id="clip0_20_2062">
<path d="M0 12C0 5.37258 5.37258 0 12 0V0C18.6274 0 24 5.37258 24 12V12C24 18.6274 18.6274 24 12 24V24C5.37258 24 0 18.6274 0 12V12Z" fill="white"/>
</clipPath>
</defs>
</svg>
